{"asset":{"generator":"Khronos glTF Blender I/O v1.5.17","version":"2.0"},"extensionsUsed":["KHR_materials_unlit"],"scene":0,"scenes":[{"name":"Scene","nodes":[4,5,6]}],"nodes":[{"mesh":0,"name":"Mesh_0"},{"mesh":1,"name":"Mesh_1"},{"children":[0,1],"name":"mushroom.obj.cleaner.materialmerger.gles"},{"children":[2],"name":"RootNode (model correction matrix)"},{"children":[3],"name":"RootNode (gltf orientation matrix)","rotation":[-0.7071068286895752,0,0,0.7071068286895752]},{"name":"Light","rotation":[0.16907575726509094,0.7558803558349609,-0.27217137813568115,0.570947527885437],"translation":[4.076245307922363,5.903861999511719,-1.0054539442062378]},{"name":"Camera","rotation":[0.483536034822464,0.33687159419059753,-0.20870360732078552,0.7804827094078064],"translation":[7.358891487121582,4.958309173583984,6.925790786743164]}],"materials":[{"alphaCutoff":0.5,"alphaMode":"MASK","doubleSided":true,"extensions":{"KHR_materials_unlit":{}},"name":"lambert8SG","pbrMetallicRoughness":{"baseColorTexture":{"index":0},"metallicFactor":0,"roughnessFactor":0.9}},{"doubleSided":true,"extensions":{"KHR_materials_unlit":{}},"name":"lambert9SG","pbrMetallicRoughness":{"baseColorTexture":{"index":1},"metallicFactor":0,"roughnessFactor":0.9}}],"meshes":[{"name":"Mesh_0","primitives":[{"attributes":{"POSITION":0,"NORMAL":1,"TEXCOORD_0":2},"indices":3,"material":0}]},{"name":"Mesh_1","primitives":[{"attributes":{"POSITION":4,"NORMAL":5,"TEXCOORD_0":6},"indices":7,"material":1}]}],"textures":[{"sampler":0,"source":0},{"sampler":0,"source":1}],"images":[{"mimeType":"image/png","name":"lambert8SG_baseColor","uri":"textures/textureA16.png"},{"mimeType":"image/jpeg","name":"lambert9SG_baseColor","uri":"textures/textureB11.jpg"}],"accessors":[{"bufferView":0,"componentType":5126,"count":477,"max":[1.4847140312194824,1.4621570110321045,1.3239079713821411],"min":[-1.4847140312194824,-1.4621570110321045,-1.156324028968811],"type":"VEC3"},{"bufferView":1,"componentType":5126,"count":477,"type":"VEC3"},{"bufferView":2,"componentType":5126,"count":477,"type":"VEC2"},{"bufferView":3,"componentType":5123,"count":2430,"type":"SCALAR"},{"bufferView":4,"componentType":5126,"count":522,"max":[1.0598679780960083,1.1834369897842407,1.5559109449386597],"min":[-1.0598679780960083,-0.8685309886932373,-0.621737003326416],"type":"VEC3"},{"bufferView":5,"componentType":5126,"count":522,"type":"VEC3"},{"bufferView":6,"componentType":5126,"count":522,"type":"VEC2"},{"bufferView":7,"componentType":5123,"count":2532,"type":"SCALAR"}],"bufferViews":[{"buffer":0,"byteLength":5724,"byteOffset":0},{"buffer":0,"byteLength":5724,"byteOffset":5724},{"buffer":0,"byteLength":3816,"byteOffset":11448},{"buffer":0,"byteLength":4860,"byteOffset":15264},{"buffer":0,"byteLength":6264,"byteOffset":20124},{"buffer":0,"byteLength":6264,"byteOffset":26388},{"buffer":0,"byteLength":4176,"byteOffset":32652},{"buffer":0,"byteLength":5064,"byteOffset":36828}],"samplers":[{"magFilter":9729,"minFilter":9987}],"buffers":[{"byteLength":41892,"uri":"mesh/scene.bin"}]}