{"asset":{"generator":"Khronos glTF Blender I/O v1.5.17","version":"2.0"},"scene":0,"scenes":[{"name":"Scene","nodes":[0,4,5,6,7,8,9]}],"nodes":[{"mesh":0,"name":"character_mageHat","translation":[0,1.488901138305664,-0.024030964821577072]},{"mesh":1,"name":"character_mageArmRight","translation":[-0.20404601097106934,0.6335563063621521,0]},{"mesh":2,"name":"character_mageArnLeft","translation":[0.20404481887817383,0.6335563659667969,0]},{"mesh":3,"name":"character_mageHead","translation":[0,0.7037110328674316,0]},{"children":[1,2,3],"mesh":4,"name":"character_mageBody"},{"mesh":5,"name":"character_mageHair","translation":[-0.00067138671875,0.7037086486816406,0]},{"name":"Light.001","rotation":[0.16907575726509094,0.7558803558349609,-0.27217137813568115,0.570947527885437],"translation":[4.076245307922363,5.903861999511719,-1.0054539442062378]},{"name":"Camera.001","rotation":[0.483536034822464,0.33687159419059753,-0.20870360732078552,0.7804827094078064],"translation":[7.358891487121582,4.958309173583984,6.925790786743164]},{"name":"Light","rotation":[0.16907575726509094,0.7558803558349609,-0.27217137813568115,0.570947527885437],"translation":[4.076245307922363,5.903861999511719,-1.0054539442062378]},{"name":"Camera","rotation":[0.483536034822464,0.33687159419059753,-0.20870360732078552,0.7804827094078064],"translation":[7.358891487121582,4.958309173583984,6.925790786743164]}],"materials":[{"doubleSided":true,"name":"PurpleDark","pbrMetallicRoughness":{"baseColorFactor":[0.0788955301016765,0.07697551735378592,0.5897379980573941,1],"metallicFactor":0,"roughnessFactor":0.4000000059604645}},{"name":"BrownDark","pbrMetallicRoughness":{"baseColorFactor":[0.013149255016946084,0.012829252892297653,0.09828966634289903,1],"metallicFactor":0,"roughnessFactor":0.4000000059604645}},{"name":"Metal","pbrMetallicRoughness":{"baseColorFactor":[0.40126433968544006,0.47849249839782715,0.5173344612121582,1],"metallicFactor":0.20000000298023224,"roughnessFactor":0.30000001192092896}},{"doubleSided":true,"name":"WoodDark","pbrMetallicRoughness":{"baseColorFactor":[0.026298510033892167,0.025658505784595307,0.19657933268579805,1],"metallicFactor":0,"roughnessFactor":0.4000000059604645}},{"doubleSided":true,"name":"PinkLight","pbrMetallicRoughness":{"baseColorFactor":[0.5778115391731262,0.23347531259059906,0.11534765362739563,1],"metallicFactor":0,"roughnessFactor":0.5}},{"name":"Black","pbrMetallicRoughness":{"baseColorFactor":[0.14841026219771075,0.19453362350444106,0.13624113614552358,1],"metallicFactor":0,"roughnessFactor":0.5}},{"doubleSided":true,"name":"Purple","pbrMetallicRoughness":{"baseColorFactor":[0.13908930222704624,0.9789122533988371,0.5925285088842488,1],"metallicFactor":0,"roughnessFactor":0.20000000298023224}},{"name":"Hair","pbrMetallicRoughness":{"baseColorFactor":[0.7420513109885538,0.9726681175222053,0.6812056807276179,1],"metallicFactor":0,"roughnessFactor":0.5}},{"name":"Red","pbrMetallicRoughness":{"baseColorFactor":[0.13908930222704624,0.9789122533988371,0.5925285088842488,1],"metallicFactor":0,"roughnessFactor":0.20000000298023224}}],"meshes":[{"name":"Cube.021","primitives":[{"attributes":{"POSITION":0,"NORMAL":1,"TEXCOORD_0":2},"indices":3,"material":0},{"attributes":{"POSITION":4,"NORMAL":5,"TEXCOORD_0":6},"indices":7,"material":1},{"attributes":{"POSITION":8,"NORMAL":9,"TEXCOORD_0":10},"indices":11,"material":2}]},{"name":"Cube.011","primitives":[{"attributes":{"POSITION":12,"NORMAL":13,"TEXCOORD_0":14},"indices":15,"material":0},{"attributes":{"POSITION":16,"NORMAL":17,"TEXCOORD_0":18},"indices":19,"material":2},{"attributes":{"POSITION":20,"NORMAL":21,"TEXCOORD_0":22},"indices":23,"material":3}]},{"name":"Cube.3976","primitives":[{"attributes":{"POSITION":24,"NORMAL":25,"TEXCOORD_0":26},"indices":27,"material":0},{"attributes":{"POSITION":28,"NORMAL":29,"TEXCOORD_0":30},"indices":31,"material":2},{"attributes":{"POSITION":32,"NORMAL":33,"TEXCOORD_0":34},"indices":35,"material":3}]},{"name":"Cube.016","primitives":[{"attributes":{"POSITION":36,"NORMAL":37,"TEXCOORD_0":38},"indices":39,"material":4},{"attributes":{"POSITION":40,"NORMAL":41,"TEXCOORD_0":42},"indices":43,"material":5}]},{"name":"Cube.008","primitives":[{"attributes":{"POSITION":44,"NORMAL":45,"TEXCOORD_0":46},"indices":47,"material":0},{"attributes":{"POSITION":48,"NORMAL":49,"TEXCOORD_0":50},"indices":51,"material":6},{"attributes":{"POSITION":52,"NORMAL":53,"TEXCOORD_0":54},"indices":55,"material":2},{"attributes":{"POSITION":56,"NORMAL":57,"TEXCOORD_0":58},"indices":59,"material":1},{"attributes":{"POSITION":60,"NORMAL":61,"TEXCOORD_0":62},"indices":63,"material":3}]},{"name":"Cube.017","primitives":[{"attributes":{"POSITION":64,"NORMAL":65,"TEXCOORD_0":66},"indices":67,"material":7},{"attributes":{"POSITION":68,"NORMAL":69,"TEXCOORD_0":70},"indices":71,"material":8}]}],"accessors":[{"bufferView":0,"componentType":5126,"count":274,"max":[1.0495288372039795,0.9480206370353699,1.0442684888839722],"min":[-1.04952871799469,-0.47645869851112366,-1.0026320219039917],"type":"VEC3"},{"bufferView":1,"componentType":5126,"count":274,"type":"VEC3"},{"bufferView":2,"componentType":5126,"count":274,"type":"VEC2"},{"bufferView":3,"componentType":5123,"count":1290,"type":"SCALAR"},{"bufferView":4,"componentType":5126,"count":50,"max":[0.5175442099571228,0.3548888862133026,0.48056402802467346],"min":[-0.5175439119338989,-0.038697078824043274,-0.5186619758605957],"type":"VEC3"},{"bufferView":5,"componentType":5126,"count":50,"type":"VEC3"},{"bufferView":6,"componentType":5126,"count":50,"type":"VEC2"},{"bufferView":7,"componentType":5123,"count":144,"type":"SCALAR"},{"bufferView":8,"componentType":5126,"count":116,"max":[0.1815878003835678,0.3973042368888855,0.5167640447616577],"min":[-0.1815878003835678,0.18020908534526825,0.28287550806999207],"type":"VEC3"},{"bufferView":9,"componentType":5126,"count":116,"type":"VEC3"},{"bufferView":10,"componentType":5126,"count":116,"type":"VEC2"},{"bufferView":11,"componentType":5123,"count":456,"type":"SCALAR"},{"bufferView":12,"componentType":5126,"count":85,"max":[0.11533478647470474,0.09418356418609619,0.10892565548419952],"min":[-0.2804300785064697,-0.34364449977874756,-0.10892561078071594],"type":"VEC3"},{"bufferView":13,"componentType":5126,"count":85,"type":"VEC3"},{"bufferView":14,"componentType":5126,"count":85,"type":"VEC2"},{"bufferView":15,"componentType":5123,"count":321,"type":"SCALAR"},{"bufferView":16,"componentType":5126,"count":69,"max":[-0.13201123476028442,-0.32862427830696106,0.11854822933673859],"min":[-0.2883024513721466,-0.3871822655200958,-0.11854816973209381],"type":"VEC3"},{"bufferView":17,"componentType":5126,"count":69,"type":"VEC3"},{"bufferView":18,"componentType":5126,"count":69,"type":"VEC2"},{"bufferView":19,"componentType":5123,"count":264,"type":"SCALAR"},{"bufferView":20,"componentType":5126,"count":56,"max":[-0.12620563805103302,-0.38473206758499146,0.09029591828584671],"min":[-0.26338085532188416,-0.47665560245513916,-0.09029586613178253],"type":"VEC3"},{"bufferView":21,"componentType":5126,"count":56,"type":"VEC3"},{"bufferView":22,"componentType":5126,"count":56,"type":"VEC2"},{"bufferView":23,"componentType":5123,"count":231,"type":"SCALAR"},{"bufferView":24,"componentType":5126,"count":85,"max":[0.2804300785064697,0.09418356418609619,0.10892565548419952],"min":[-0.11533478647470474,-0.34364449977874756,-0.10892561078071594],"type":"VEC3"},{"bufferView":25,"componentType":5126,"count":85,"type":"VEC3"},{"bufferView":26,"componentType":5126,"count":85,"type":"VEC2"},{"bufferView":27,"componentType":5123,"count":321,"type":"SCALAR"},{"bufferView":28,"componentType":5126,"count":69,"max":[0.2883024513721466,-0.32862427830696106,0.11854822933673859],"min":[0.13201123476028442,-0.3871822655200958,-0.11854816973209381],"type":"VEC3"},{"bufferView":29,"componentType":5126,"count":69,"type":"VEC3"},{"bufferView":30,"componentType":5126,"count":69,"type":"VEC2"},{"bufferView":31,"componentType":5123,"count":264,"type":"SCALAR"},{"bufferView":32,"componentType":5126,"count":56,"max":[0.26338085532188416,-0.38473206758499146,0.09029591828584671],"min":[0.12620563805103302,-0.47665560245513916,-0.09029586613178253],"type":"VEC3"},{"bufferView":33,"componentType":5126,"count":56,"type":"VEC3"},{"bufferView":34,"componentType":5126,"count":56,"type":"VEC2"},{"bufferView":35,"componentType":5123,"count":231,"type":"SCALAR"},{"bufferView":36,"componentType":5126,"count":739,"max":[0.5877280831336975,0.9665905237197876,0.5602686405181885],"min":[-0.5877270102500916,-0.0037102699279785156,-0.490499347448349],"type":"VEC3"},{"bufferView":37,"componentType":5126,"count":739,"type":"VEC3"},{"bufferView":38,"componentType":5126,"count":739,"type":"VEC2"},{"bufferView":39,"componentType":5123,"count":2724,"type":"SCALAR"},{"bufferView":40,"componentType":5126,"count":849,"max":[0.39657193422317505,0.6282486319541931,0.4721234142780304],"min":[-0.39546477794647217,0.37176191806793213,0.27810248732566833],"type":"VEC3"},{"bufferView":41,"componentType":5126,"count":849,"type":"VEC3"},{"bufferView":42,"componentType":5126,"count":849,"type":"VEC2"},{"bufferView":43,"componentType":5123,"count":4002,"type":"SCALAR"},{"bufferView":44,"componentType":5126,"count":450,"max":[0.38969266414642334,0.8039384484291077,0.34672653675079346],"min":[-0.38969266414642334,0.07151437550783157,-0.39018213748931885],"type":"VEC3"},{"bufferView":45,"componentType":5126,"count":450,"type":"VEC3"},{"bufferView":46,"componentType":5126,"count":450,"type":"VEC2"},{"bufferView":47,"componentType":5123,"count":1485,"type":"SCALAR"},{"bufferView":48,"componentType":5126,"count":24,"max":[0.047613903880119324,0.6144547462463379,0.27916380763053894],"min":[-0.0476139597594738,0.532245934009552,0.22087320685386658],"type":"VEC3"},{"bufferView":49,"componentType":5126,"count":24,"type":"VEC3"},{"bufferView":50,"componentType":5126,"count":24,"type":"VEC2"},{"bufferView":51,"componentType":5123,"count":102,"type":"SCALAR"},{"bufferView":52,"componentType":5126,"count":247,"max":[0.4051778018474579,0.7293163537979126,0.3913716673851013],"min":[-0.4051778018474579,0.01089969277381897,-0.40517786145210266],"type":"VEC3"},{"bufferView":53,"componentType":5126,"count":247,"type":"VEC3"},{"bufferView":54,"componentType":5126,"count":247,"type":"VEC2"},{"bufferView":55,"componentType":5123,"count":954,"type":"SCALAR"},{"bufferView":56,"componentType":5126,"count":130,"max":[0.3601396679878235,0.35948634147644043,0.35532739758491516],"min":[-0.3601396381855011,0.24140261113643646,-0.3900700509548187],"type":"VEC3"},{"bufferView":57,"componentType":5126,"count":130,"type":"VEC3"},{"bufferView":58,"componentType":5126,"count":130,"type":"VEC2"},{"bufferView":59,"componentType":5123,"count":420,"type":"SCALAR"},{"bufferView":60,"componentType":5126,"count":80,"max":[0.30310875177383423,0.7255613207817078,0.3396599590778351],"min":[-0.30310872197151184,-2.2351741790771484e-8,-0.303108811378479],"type":"VEC3"},{"bufferView":61,"componentType":5126,"count":80,"type":"VEC3"},{"bufferView":62,"componentType":5126,"count":80,"type":"VEC2"},{"bufferView":63,"componentType":5123,"count":312,"type":"SCALAR"},{"bufferView":64,"componentType":5126,"count":556,"max":[0.5556272268295288,1.0726135969161987,0.5324633121490479],"min":[-0.5556272864341736,-0.34272390604019165,-0.5556281805038452],"type":"VEC3"},{"bufferView":65,"componentType":5126,"count":556,"type":"VEC3"},{"bufferView":66,"componentType":5126,"count":556,"type":"VEC2"},{"bufferView":67,"componentType":5123,"count":2820,"type":"SCALAR"},{"bufferView":68,"componentType":5126,"count":40,"max":[0.09913718700408936,0.058173324912786484,-0.3324476182460785],"min":[-0.09913729131221771,-0.04961688816547394,-0.45566219091415405],"type":"VEC3"},{"bufferView":69,"componentType":5126,"count":40,"type":"VEC3"},{"bufferView":70,"componentType":5126,"count":40,"type":"VEC2"},{"bufferView":71,"componentType":5123,"count":192,"type":"SCALAR"}],"bufferViews":[{"buffer":0,"byteLength":3288,"byteOffset":0},{"buffer":0,"byteLength":3288,"byteOffset":3288},{"buffer":0,"byteLength":2192,"byteOffset":6576},{"buffer":0,"byteLength":2580,"byteOffset":8768},{"buffer":0,"byteLength":600,"byteOffset":11348},{"buffer":0,"byteLength":600,"byteOffset":11948},{"buffer":0,"byteLength":400,"byteOffset":12548},{"buffer":0,"byteLength":288,"byteOffset":12948},{"buffer":0,"byteLength":1392,"byteOffset":13236},{"buffer":0,"byteLength":1392,"byteOffset":14628},{"buffer":0,"byteLength":928,"byteOffset":16020},{"buffer":0,"byteLength":912,"byteOffset":16948},{"buffer":0,"byteLength":1020,"byteOffset":17860},{"buffer":0,"byteLength":1020,"byteOffset":18880},{"buffer":0,"byteLength":680,"byteOffset":19900},{"buffer":0,"byteLength":642,"byteOffset":20580},{"buffer":0,"byteLength":828,"byteOffset":21224},{"buffer":0,"byteLength":828,"byteOffset":22052},{"buffer":0,"byteLength":552,"byteOffset":22880},{"buffer":0,"byteLength":528,"byteOffset":23432},{"buffer":0,"byteLength":672,"byteOffset":23960},{"buffer":0,"byteLength":672,"byteOffset":24632},{"buffer":0,"byteLength":448,"byteOffset":25304},{"buffer":0,"byteLength":462,"byteOffset":25752},{"buffer":0,"byteLength":1020,"byteOffset":26216},{"buffer":0,"byteLength":1020,"byteOffset":27236},{"buffer":0,"byteLength":680,"byteOffset":28256},{"buffer":0,"byteLength":642,"byteOffset":28936},{"buffer":0,"byteLength":828,"byteOffset":29580},{"buffer":0,"byteLength":828,"byteOffset":30408},{"buffer":0,"byteLength":552,"byteOffset":31236},{"buffer":0,"byteLength":528,"byteOffset":31788},{"buffer":0,"byteLength":672,"byteOffset":32316},{"buffer":0,"byteLength":672,"byteOffset":32988},{"buffer":0,"byteLength":448,"byteOffset":33660},{"buffer":0,"byteLength":462,"byteOffset":34108},{"buffer":0,"byteLength":8868,"byteOffset":34572},{"buffer":0,"byteLength":8868,"byteOffset":43440},{"buffer":0,"byteLength":5912,"byteOffset":52308},{"buffer":0,"byteLength":5448,"byteOffset":58220},{"buffer":0,"byteLength":10188,"byteOffset":63668},{"buffer":0,"byteLength":10188,"byteOffset":73856},{"buffer":0,"byteLength":6792,"byteOffset":84044},{"buffer":0,"byteLength":8004,"byteOffset":90836},{"buffer":0,"byteLength":5400,"byteOffset":98840},{"buffer":0,"byteLength":5400,"byteOffset":104240},{"buffer":0,"byteLength":3600,"byteOffset":109640},{"buffer":0,"byteLength":2970,"byteOffset":113240},{"buffer":0,"byteLength":288,"byteOffset":116212},{"buffer":0,"byteLength":288,"byteOffset":116500},{"buffer":0,"byteLength":192,"byteOffset":116788},{"buffer":0,"byteLength":204,"byteOffset":116980},{"buffer":0,"byteLength":2964,"byteOffset":117184},{"buffer":0,"byteLength":2964,"byteOffset":120148},{"buffer":0,"byteLength":1976,"byteOffset":123112},{"buffer":0,"byteLength":1908,"byteOffset":125088},{"buffer":0,"byteLength":1560,"byteOffset":126996},{"buffer":0,"byteLength":1560,"byteOffset":128556},{"buffer":0,"byteLength":1040,"byteOffset":130116},{"buffer":0,"byteLength":840,"byteOffset":131156},{"buffer":0,"byteLength":960,"byteOffset":131996},{"buffer":0,"byteLength":960,"byteOffset":132956},{"buffer":0,"byteLength":640,"byteOffset":133916},{"buffer":0,"byteLength":624,"byteOffset":134556},{"buffer":0,"byteLength":6672,"byteOffset":135180},{"buffer":0,"byteLength":6672,"byteOffset":141852},{"buffer":0,"byteLength":4448,"byteOffset":148524},{"buffer":0,"byteLength":5640,"byteOffset":152972},{"buffer":0,"byteLength":480,"byteOffset":158612},{"buffer":0,"byteLength":480,"byteOffset":159092},{"buffer":0,"byteLength":320,"byteOffset":159572},{"buffer":0,"byteLength":384,"byteOffset":159892}],"buffers":[{"byteLength":160276,"uri":"mesh/mage.bin"}]}